<mxfile host="app.diagrams.net" agent="Mozilla/5.0 (X11; Linux x86_64) AppleWebKit/537.36 (KHTML, like Gecko) Chrome/141.0.0.0 Safari/537.36" version="28.2.7" pages="2">
  <diagram name="Step 1" id="w6o3ThdgBnDysbvFrffI">
    <mxGraphModel dx="2946" dy="1159" grid="1" gridSize="10" guides="1" tooltips="1" connect="1" arrows="1" fold="1" page="1" pageScale="1" pageWidth="850" pageHeight="1100" math="0" shadow="0">
      <root>
        <mxCell id="0" />
        <mxCell id="1" parent="0" />
        <mxCell id="VRrTi7i2wCU3xgdVZJ-x-1" value="Terminal interface" style="rounded=0;whiteSpace=wrap;html=1;fillColor=#dae8fc;strokeColor=#6c8ebf;" vertex="1" parent="1">
          <mxGeometry x="350" y="190" width="120" height="60" as="geometry" />
        </mxCell>
        <mxCell id="VRrTi7i2wCU3xgdVZJ-x-4" style="edgeStyle=orthogonalEdgeStyle;rounded=0;orthogonalLoop=1;jettySize=auto;html=1;entryX=1;entryY=0.5;entryDx=0;entryDy=0;" edge="1" parent="1" source="VRrTi7i2wCU3xgdVZJ-x-2" target="VRrTi7i2wCU3xgdVZJ-x-3">
          <mxGeometry relative="1" as="geometry" />
        </mxCell>
        <mxCell id="VRrTi7i2wCU3xgdVZJ-x-5" style="edgeStyle=orthogonalEdgeStyle;rounded=0;orthogonalLoop=1;jettySize=auto;html=1;entryX=0.5;entryY=1;entryDx=0;entryDy=0;" edge="1" parent="1" source="VRrTi7i2wCU3xgdVZJ-x-2" target="VRrTi7i2wCU3xgdVZJ-x-1">
          <mxGeometry relative="1" as="geometry" />
        </mxCell>
        <mxCell id="VRrTi7i2wCU3xgdVZJ-x-9" style="edgeStyle=orthogonalEdgeStyle;rounded=0;orthogonalLoop=1;jettySize=auto;html=1;" edge="1" parent="1" source="VRrTi7i2wCU3xgdVZJ-x-2" target="VRrTi7i2wCU3xgdVZJ-x-6">
          <mxGeometry relative="1" as="geometry" />
        </mxCell>
        <mxCell id="VRrTi7i2wCU3xgdVZJ-x-10" style="edgeStyle=orthogonalEdgeStyle;rounded=0;orthogonalLoop=1;jettySize=auto;html=1;exitX=0.5;exitY=1;exitDx=0;exitDy=0;" edge="1" parent="1" source="VRrTi7i2wCU3xgdVZJ-x-2" target="VRrTi7i2wCU3xgdVZJ-x-7">
          <mxGeometry relative="1" as="geometry" />
        </mxCell>
        <mxCell id="VRrTi7i2wCU3xgdVZJ-x-11" style="edgeStyle=orthogonalEdgeStyle;rounded=0;orthogonalLoop=1;jettySize=auto;html=1;entryX=0.5;entryY=0;entryDx=0;entryDy=0;exitX=0.5;exitY=1;exitDx=0;exitDy=0;" edge="1" parent="1" source="VRrTi7i2wCU3xgdVZJ-x-2" target="VRrTi7i2wCU3xgdVZJ-x-8">
          <mxGeometry relative="1" as="geometry" />
        </mxCell>
        <mxCell id="VRrTi7i2wCU3xgdVZJ-x-13" style="edgeStyle=orthogonalEdgeStyle;rounded=0;orthogonalLoop=1;jettySize=auto;html=1;" edge="1" parent="1" source="VRrTi7i2wCU3xgdVZJ-x-2" target="VRrTi7i2wCU3xgdVZJ-x-12">
          <mxGeometry relative="1" as="geometry" />
        </mxCell>
        <mxCell id="VRrTi7i2wCU3xgdVZJ-x-2" value="CodingAgent" style="rounded=0;whiteSpace=wrap;html=1;fillColor=#dae8fc;strokeColor=#6c8ebf;" vertex="1" parent="1">
          <mxGeometry x="350" y="280" width="120" height="60" as="geometry" />
        </mxCell>
        <mxCell id="VRrTi7i2wCU3xgdVZJ-x-3" value="AgentInstructions" style="rounded=0;whiteSpace=wrap;html=1;fillColor=#dae8fc;strokeColor=#6c8ebf;" vertex="1" parent="1">
          <mxGeometry x="200" y="280" width="120" height="60" as="geometry" />
        </mxCell>
        <mxCell id="VRrTi7i2wCU3xgdVZJ-x-6" value="ShellPlugin" style="rounded=0;whiteSpace=wrap;html=1;" vertex="1" parent="1">
          <mxGeometry x="350" y="380" width="120" height="60" as="geometry" />
        </mxCell>
        <mxCell id="VRrTi7i2wCU3xgdVZJ-x-7" value="TextEditorPlugin" style="rounded=0;whiteSpace=wrap;html=1;" vertex="1" parent="1">
          <mxGeometry x="500" y="380" width="120" height="60" as="geometry" />
        </mxCell>
        <mxCell id="VRrTi7i2wCU3xgdVZJ-x-8" value="TaskMemoryPlugin" style="rounded=0;whiteSpace=wrap;html=1;" vertex="1" parent="1">
          <mxGeometry x="200" y="380" width="120" height="60" as="geometry" />
        </mxCell>
        <mxCell id="VRrTi7i2wCU3xgdVZJ-x-12" value="MCP Servers" style="rounded=0;whiteSpace=wrap;html=1;" vertex="1" parent="1">
          <mxGeometry x="500" y="280" width="120" height="60" as="geometry" />
        </mxCell>
      </root>
    </mxGraphModel>
  </diagram>
  <diagram name="Step 2" id="yPrkEz2xbbZ_88bbG_Gg">
    <mxGraphModel dx="2946" dy="1159" grid="1" gridSize="10" guides="1" tooltips="1" connect="1" arrows="1" fold="1" page="1" pageScale="1" pageWidth="850" pageHeight="1100" math="0" shadow="0">
      <root>
        <mxCell id="_jSdY9M1An4DfjjMcIJH-0" />
        <mxCell id="_jSdY9M1An4DfjjMcIJH-1" parent="_jSdY9M1An4DfjjMcIJH-0" />
        <mxCell id="_jSdY9M1An4DfjjMcIJH-2" value="Terminal interface" style="rounded=0;whiteSpace=wrap;html=1;" vertex="1" parent="_jSdY9M1An4DfjjMcIJH-1">
          <mxGeometry x="350" y="190" width="120" height="60" as="geometry" />
        </mxCell>
        <mxCell id="_jSdY9M1An4DfjjMcIJH-3" style="edgeStyle=orthogonalEdgeStyle;rounded=0;orthogonalLoop=1;jettySize=auto;html=1;entryX=1;entryY=0.5;entryDx=0;entryDy=0;" edge="1" parent="_jSdY9M1An4DfjjMcIJH-1" source="_jSdY9M1An4DfjjMcIJH-9" target="_jSdY9M1An4DfjjMcIJH-10">
          <mxGeometry relative="1" as="geometry" />
        </mxCell>
        <mxCell id="_jSdY9M1An4DfjjMcIJH-4" style="edgeStyle=orthogonalEdgeStyle;rounded=0;orthogonalLoop=1;jettySize=auto;html=1;entryX=0.5;entryY=1;entryDx=0;entryDy=0;" edge="1" parent="_jSdY9M1An4DfjjMcIJH-1" source="_jSdY9M1An4DfjjMcIJH-9" target="_jSdY9M1An4DfjjMcIJH-2">
          <mxGeometry relative="1" as="geometry" />
        </mxCell>
        <mxCell id="_jSdY9M1An4DfjjMcIJH-5" style="edgeStyle=orthogonalEdgeStyle;rounded=0;orthogonalLoop=1;jettySize=auto;html=1;" edge="1" parent="_jSdY9M1An4DfjjMcIJH-1" source="_jSdY9M1An4DfjjMcIJH-9" target="_jSdY9M1An4DfjjMcIJH-11">
          <mxGeometry relative="1" as="geometry" />
        </mxCell>
        <mxCell id="_jSdY9M1An4DfjjMcIJH-6" style="edgeStyle=orthogonalEdgeStyle;rounded=0;orthogonalLoop=1;jettySize=auto;html=1;exitX=0.5;exitY=1;exitDx=0;exitDy=0;" edge="1" parent="_jSdY9M1An4DfjjMcIJH-1" source="_jSdY9M1An4DfjjMcIJH-9" target="_jSdY9M1An4DfjjMcIJH-12">
          <mxGeometry relative="1" as="geometry" />
        </mxCell>
        <mxCell id="_jSdY9M1An4DfjjMcIJH-7" style="edgeStyle=orthogonalEdgeStyle;rounded=0;orthogonalLoop=1;jettySize=auto;html=1;entryX=0.5;entryY=0;entryDx=0;entryDy=0;exitX=0.5;exitY=1;exitDx=0;exitDy=0;" edge="1" parent="_jSdY9M1An4DfjjMcIJH-1" source="_jSdY9M1An4DfjjMcIJH-9" target="_jSdY9M1An4DfjjMcIJH-13">
          <mxGeometry relative="1" as="geometry" />
        </mxCell>
        <mxCell id="_jSdY9M1An4DfjjMcIJH-8" style="edgeStyle=orthogonalEdgeStyle;rounded=0;orthogonalLoop=1;jettySize=auto;html=1;" edge="1" parent="_jSdY9M1An4DfjjMcIJH-1" source="_jSdY9M1An4DfjjMcIJH-9" target="_jSdY9M1An4DfjjMcIJH-14">
          <mxGeometry relative="1" as="geometry" />
        </mxCell>
        <mxCell id="_jSdY9M1An4DfjjMcIJH-9" value="CodingAgent" style="rounded=0;whiteSpace=wrap;html=1;fillColor=#f5f5f5;fontColor=#333333;strokeColor=#666666;" vertex="1" parent="_jSdY9M1An4DfjjMcIJH-1">
          <mxGeometry x="350" y="280" width="120" height="60" as="geometry" />
        </mxCell>
        <mxCell id="_jSdY9M1An4DfjjMcIJH-10" value="AgentInstructions" style="rounded=0;whiteSpace=wrap;html=1;" vertex="1" parent="_jSdY9M1An4DfjjMcIJH-1">
          <mxGeometry x="200" y="280" width="120" height="60" as="geometry" />
        </mxCell>
        <mxCell id="_jSdY9M1An4DfjjMcIJH-11" value="ShellPlugin" style="rounded=0;whiteSpace=wrap;html=1;fillColor=#dae8fc;strokeColor=#6c8ebf;" vertex="1" parent="_jSdY9M1An4DfjjMcIJH-1">
          <mxGeometry x="350" y="380" width="120" height="60" as="geometry" />
        </mxCell>
        <mxCell id="_jSdY9M1An4DfjjMcIJH-12" value="TextEditorPlugin" style="rounded=0;whiteSpace=wrap;html=1;fillColor=#dae8fc;strokeColor=#6c8ebf;" vertex="1" parent="_jSdY9M1An4DfjjMcIJH-1">
          <mxGeometry x="500" y="380" width="120" height="60" as="geometry" />
        </mxCell>
        <mxCell id="_jSdY9M1An4DfjjMcIJH-13" value="TaskMemoryPlugin" style="rounded=0;whiteSpace=wrap;html=1;" vertex="1" parent="_jSdY9M1An4DfjjMcIJH-1">
          <mxGeometry x="200" y="380" width="120" height="60" as="geometry" />
        </mxCell>
        <mxCell id="_jSdY9M1An4DfjjMcIJH-14" value="MCP Servers" style="rounded=0;whiteSpace=wrap;html=1;" vertex="1" parent="_jSdY9M1An4DfjjMcIJH-1">
          <mxGeometry x="500" y="280" width="120" height="60" as="geometry" />
        </mxCell>
      </root>
    </mxGraphModel>
  </diagram>
</mxfile>
